HIERARCHY
ROOT Hips
{
  OFFSET 5.72205e-005 65.662 3.42586
  CHANNELS 6 Xposition Yposition Zposition Zrotation Xrotation Yrotation
  JOINT Chest
  {
    OFFSET 0 8.7983 -4.7612
    CHANNELS 3 Zrotation Xrotation Yrotation
    JOINT Chest2
    {
      OFFSET 0 8.0291 0.4195
      CHANNELS 3 Zrotation Xrotation Yrotation
      JOINT Chest3
      {
        OFFSET 0 9.9351 -2.2114
        CHANNELS 3 Zrotation Xrotation Yrotation
        JOINT Neck
        {
          OFFSET 0 22.3885 -0.4656
          CHANNELS 3 Zrotation Xrotation Yrotation
          JOINT Head
          {
            OFFSET -0.0001 12.643 3.4389
            CHANNELS 3 Zrotation Xrotation Yrotation
            End Site
            {
              OFFSET 0.0001 17.6655 0.5274
            }
          }
        }
        JOINT LeftCollar
        {
          OFFSET 2.2603 21.606 7.4023
          CHANNELS 3 Zrotation Xrotation Yrotation
          JOINT LeftShoulder
          {
            OFFSET 13.5163 -1.1332 -5.0146
            CHANNELS 3 Zrotation Xrotation Yrotation
            JOINT LeftElbow
            {
              OFFSET -0.0995 -28.05 -0.2431
              CHANNELS 3 Zrotation Xrotation Yrotation
              JOINT LeftWrist
              {
                OFFSET 0.0679 -23.3996 -0.1402
                CHANNELS 3 Zrotation Xrotation Yrotation
                JOINT LeftFinger1
                {
                  OFFSET 0.7932 -9.069 2.5189
                  CHANNELS 3 Zrotation Xrotation Yrotation
                  JOINT LeftFinger11
                  {
                    OFFSET -0.8272 -3.3923 0.5977
                    CHANNELS 3 Zrotation Xrotation Yrotation
                    JOINT LeftFinger12
                    {
                      OFFSET -0.5649 -2.3158 0.4082
                      CHANNELS 3 Zrotation Xrotation Yrotation
                      End Site
                      {
                        OFFSET -0.4919 -1.6479 0.2673
                      }
                    }
                  }
                }
                JOINT LeftFinger2
                {
                  OFFSET 0.9159 -9.2044 0.2193
                  CHANNELS 3 Zrotation Xrotation Yrotation
                  JOINT LeftFinger21
                  {
                    OFFSET 0.0117 -4.1944 -0.0248
                    CHANNELS 3 Zrotation Xrotation Yrotation
                    JOINT LeftFinger22
                    {
                      OFFSET 0.0071 -2.3249 -0.0142
                      CHANNELS 3 Zrotation Xrotation Yrotation
                      End Site
                      {
                        OFFSET -0.1475 -2.0882 0.0028
                      }
                    }
                  }
                }
                JOINT LeftFinger3
                {
                  OFFSET 0.6113 -8.7231 -2.0637
                  CHANNELS 3 Zrotation Xrotation Yrotation
                  JOINT LeftFinger31
                  {
                    OFFSET -0.1927 -3.8059 -0.2383
                    CHANNELS 3 Zrotation Xrotation Yrotation
                    JOINT LeftFinger32
                    {
                      OFFSET -0.1091 -2.1688 -0.1362
                      CHANNELS 3 Zrotation Xrotation Yrotation
                      End Site
                      {
                        OFFSET -0.2358 -1.9176 -0.0906
                      }
                    }
                  }
                }
                JOINT LeftFinger4
                {
                  OFFSET -0.6151 -8.0947 -3.5641
                  CHANNELS 3 Zrotation Xrotation Yrotation
                  JOINT LeftFinger41
                  {
                    OFFSET -0.4882 -2.341 -0.6462
                    CHANNELS 3 Zrotation Xrotation Yrotation
                    JOINT LeftFinger42
                    {
                      OFFSET -0.3575 -1.7167 -0.4742
                      CHANNELS 3 Zrotation Xrotation Yrotation
                      End Site
                      {
                        OFFSET -0.4187 -1.5237 -0.3496
                      }
                    }
                  }
                }
                JOINT LeftFinger0
                {
                  OFFSET -1.42 -1.8761 1.4223
                  CHANNELS 3 Zrotation Xrotation Yrotation
                  JOINT LeftFinger01
                  {
                    OFFSET -1.1471 -3.4929 2.6334
                    CHANNELS 3 Zrotation Xrotation Yrotation
                    JOINT LeftFinger02
                    {
                      OFFSET -0.823 -2.3 1.6571
                      CHANNELS 3 Zrotation Xrotation Yrotation
                      End Site
                      {
                        OFFSET -0.5822 -1.6914 1.1582
                      }
                    }
                  }
                }
              }
            }
          }
        }
        JOINT RightCollar
        {
          OFFSET -2.2603 21.606 7.4023
          CHANNELS 3 Zrotation Xrotation Yrotation
          JOINT RightShoulder
          {
            OFFSET -13.5187 -1.1334 -5.0155
            CHANNELS 3 Zrotation Xrotation Yrotation
            JOINT RightElbow
            {
              OFFSET 0.0994 -28.0499 -0.2431
              CHANNELS 3 Zrotation Xrotation Yrotation
              JOINT RightWrist
              {
                OFFSET -0.0679 -23.3996 -0.1402
                CHANNELS 3 Zrotation Xrotation Yrotation
                JOINT RightFinger1
                {
                  OFFSET -0.7932 -9.0691 2.5189
                  CHANNELS 3 Zrotation Xrotation Yrotation
                  JOINT RightFinger11
                  {
                    OFFSET 0.8272 -3.3923 0.5977
                    CHANNELS 3 Zrotation Xrotation Yrotation
                    JOINT RightFinger12
                    {
                      OFFSET 0.565 -2.3158 0.4082
                      CHANNELS 3 Zrotation Xrotation Yrotation
                      End Site
                      {
                        OFFSET 0.4919 -1.6479 0.2673
                      }
                    }
                  }
                }
                JOINT RightFinger2
                {
                  OFFSET -0.916 -9.2044 0.2193
                  CHANNELS 3 Zrotation Xrotation Yrotation
                  JOINT RightFinger21
                  {
                    OFFSET -0.0117 -4.1944 -0.0248
                    CHANNELS 3 Zrotation Xrotation Yrotation
                    JOINT RightFinger22
                    {
                      OFFSET -0.0071 -2.3249 -0.0142
                      CHANNELS 3 Zrotation Xrotation Yrotation
                      End Site
                      {
                        OFFSET 0.1475 -2.0882 0.0028
                      }
                    }
                  }
                }
                JOINT RightFinger3
                {
                  OFFSET -0.6113 -8.7231 -2.0637
                  CHANNELS 3 Zrotation Xrotation Yrotation
                  JOINT RightFinger31
                  {
                    OFFSET 0.1927 -3.8059 -0.2383
                    CHANNELS 3 Zrotation Xrotation Yrotation
                    JOINT RightFinger32
                    {
                      OFFSET 0.1091 -2.1688 -0.1362
                      CHANNELS 3 Zrotation Xrotation Yrotation
                      End Site
                      {
                        OFFSET 0.2358 -1.9176 -0.0906
                      }
                    }
                  }
                }
                JOINT RightFinger4
                {
                  OFFSET 0.6151 -8.0947 -3.564
                  CHANNELS 3 Zrotation Xrotation Yrotation
                  JOINT RightFinger41
                  {
                    OFFSET 0.4882 -2.341 -0.6462
                    CHANNELS 3 Zrotation Xrotation Yrotation
                    JOINT RightFinger42
                    {
                      OFFSET 0.3574 -1.7166 -0.4742
                      CHANNELS 3 Zrotation Xrotation Yrotation
                      End Site
                      {
                        OFFSET 0.4187 -1.5237 -0.3496
                      }
                    }
                  }
                }
                JOINT RightFinger0
                {
                  OFFSET 1.4199 -1.8761 1.4221
                  CHANNELS 3 Zrotation Xrotation Yrotation
                  JOINT RightFinger01
                  {
                    OFFSET 1.1472 -3.4929 2.6336
                    CHANNELS 3 Zrotation Xrotation Yrotation
                    JOINT RightFinger02
                    {
                      OFFSET 0.8229 -2.3 1.6571
                      CHANNELS 3 Zrotation Xrotation Yrotation
                      End Site
                      {
                        OFFSET 0.5822 -1.6914 1.1582
                      }
                    }
                  }
                }
              }
            }
          }
        }
      }
    }
  }
  JOINT RightHip
  {
    OFFSET -9.412 3.9771 -0.7758
    CHANNELS 3 Zrotation Xrotation Yrotation
    JOINT RightKnee
    {
      OFFSET -0.7531 -40.938 0
      CHANNELS 3 Zrotation Xrotation Yrotation
      JOINT RightAnkle
      {
        OFFSET 0 -40.1986 0
        CHANNELS 3 Zrotation Xrotation Yrotation
        JOINT RightToe
        {
          OFFSET 0 -4.4182 9.239
          CHANNELS 3 Zrotation Xrotation Yrotation
          End Site
          {
            OFFSET 0 0 6.1981
          }
        }
      }
    }
  }
  JOINT LeftHip
  {
    OFFSET 9.4119 3.9773 -0.7758
    CHANNELS 3 Zrotation Xrotation Yrotation
    JOINT LeftKnee
    {
      OFFSET 0.7532 -40.9383 0
      CHANNELS 3 Zrotation Xrotation Yrotation
      JOINT LeftAnkle
      {
        OFFSET 0 -40.1986 0
        CHANNELS 3 Zrotation Xrotation Yrotation
        JOINT LeftToe
        {
          OFFSET 0 -4.4182 9.239
          CHANNELS 3 Zrotation Xrotation Yrotation
          End Site
          {
            OFFSET 0 0 6.1981
          }
        }
      }
    }
  }
}
MOTION
Frames:	5
Frame Time:	0.0333333
5.72205e-005 65.662 3.42586 0 0 -0 0 0 -0 0 0 -0 0 0 -0 0 0 -0 0 0 -0 0 0 -12.5014 88.1196 14.2451 10.6914 -0.00160068 -0.00239207 0.000740045 -8.4365e-005 7.00714e-005 -9.52055e-007 9.93923e-017 -1.98785e-016 -1.59028e-015 9.93923e-017 -5.96354e-016 -1.59028e-015 -9.93923e-017 -5.96354e-016 -1.59028e-015 9.93923e-017 -1.98785e-016 -1.59028e-015 -0.0128176 0.00232552 8.52707e-005 9.93923e-017 5.96354e-016 -0 9.93923e-017 -1.98785e-016 -1.59028e-015 -0.0160551 0.00299681 0.000857156 -2.48481e-016 0 3.18055e-015 9.93923e-017 -1.98785e-016 -1.59028e-015 -0.0125865 0.0031206 0.00282719 0 1.98785e-016 -0 9.93923e-017 -1.98785e-016 -1.59028e-015 9.93923e-017 -5.96354e-016 -1.59028e-015 -9.93923e-017 -5.96354e-016 -1.59028e-015 -0.865644 0.16582 7.03859 -88.0329 10.2057 -10.5567 0.0015593 -0.00248883 -0.000788628 7.87605e-005 4.10553e-005 1.24965e-005 -3.97569e-016 -7.95139e-016 3.18055e-015 -1.98785e-016 -3.97569e-016 3.18055e-015 -1.98785e-016 0 3.18055e-015 -3.97569e-016 -7.95139e-016 3.18055e-015 0.0129473 0.00231697 -8.70038e-005 9.93923e-017 -7.95139e-016 1.59028e-015 -3.97569e-016 -7.95139e-016 3.18055e-015 0.0163314 0.00303369 -0.000872333 3.97569e-016 7.95139e-016 -3.18055e-015 -3.97569e-016 -7.95139e-016 3.18055e-015 0.0145763 0.00367772 -0.00326275 9.93923e-017 -3.97569e-016 -0 -3.97569e-016 -7.95139e-016 3.18055e-015 -1.98785e-016 -3.97569e-016 3.18055e-015 -1.98785e-016 0 3.18055e-015 3.42482 1.32465 -0.0626183 0.000117508 0.717283 0.000978199 -3.4257 -2.04197 -0.0604716 6.47761e-025 0 -0 -3.42483 1.34017 0.0627307 -0.000193936 0.682302 -0.0013703 3.42574 -2.02253 0.0595886 -8.45714e-024 0 -7.40531e-025 
0.240677 40.3549 8.19721 -9.91814e-009 -28.1228 1.11174e-008 -0.0278092 2.7303 -0.0381305 -0.0538888 5.46065 -0.0750607 -0.0538888 5.46064 -0.0750608 6.881e-008 6.70038 4.63983e-008 4.34589e-009 3.35131 9.35761e-008 -1.78678 -1.03345 -9.78003 59.486 23.5948 16.1182 -2.37299 -27.1585 -11.9182 -0.98208 -0.934587 -8.06825 7.95139e-016 -3.18055e-015 3.18055e-015 7.95139e-016 0 -0 7.95139e-016 3.18055e-015 -7.95139e-016 7.95139e-016 -3.18055e-015 3.18055e-015 -0.0128811 0.00233232 8.19994e-005 -5.1684e-015 -3.18055e-015 3.18055e-015 7.95139e-016 -3.18055e-015 3.18055e-015 -0.0160118 0.00299135 0.000852096 -3.18055e-015 3.18055e-015 -2.38542e-015 7.95139e-016 -3.18055e-015 3.18055e-015 -0.0126838 0.00315247 0.00284661 -1.59028e-015 -3.18055e-015 -0 7.95139e-016 -3.18055e-015 3.18055e-015 7.95139e-016 0 -0 7.95139e-016 3.18055e-015 -7.95139e-016 1.07311 -0.690681 4.50343 -60.4543 20.1622 -13.0496 1.70889 -27.3585 11.0799 0.658511 -1.143 7.87383 -5.1684e-015 -3.18055e-015 -0 -1.34508e-007 1.40935e-006 -4.02748e-007 3.97569e-015 0 -0 -5.1684e-015 -3.18055e-015 -0 0.0129691 0.00232207 -8.92887e-005 5.96354e-015 0 -2.38542e-015 -5.1684e-015 -3.18055e-015 -0 0.0162798 0.00302418 -0.000870625 -1.19271e-015 -3.18055e-015 3.18055e-015 -5.1684e-015 -3.18055e-015 -0 0.0145961 0.00368452 -0.00326742 3.18055e-015 -3.18055e-015 7.95139e-016 -5.1684e-015 -3.18055e-015 -0 -1.34508e-007 1.40935e-006 -4.02748e-007 3.97569e-015 0 -0 -13.1083 -49.3566 -15.1141 0.832114 43.0979 -2.22769 -8.15543 12.3511 12.7117 5.96354e-016 -9.54166e-015 -1.19271e-015 17.0475 -2.52713 -6.56408 -1.84989 -0.000785761 -0.0366679 7.66486 2.60023 11.7783 -7.95139e-016 3.19931e-006 -0 
0.659454 17.0731 10.5192 -5.72542e-008 -56.2455 -7.84563e-008 -0.0478355 5.46049 -0.0801458 -0.0885649 10.9211 -0.156763 -0.0885651 10.9211 -0.156764 -1.36008e-008 13.4008 -7.46529e-008 1.31898e-008 6.70262 1.0132e-007 -3.47549 -2.05986 -7.05604 29.3582 30.3141 20.9185 -8.68752 -53.9979 -28.4944 -1.94291 -1.9128 -16.1253 6.21202e-016 -3.18055e-015 -2.25496e-015 9.87711e-016 6.36111e-015 -5.13734e-015 -5.66536e-015 -3.18055e-015 1.01256e-015 6.21202e-016 -3.18055e-015 -2.25496e-015 -0.0128154 0.00232138 0.000100669 2.83268e-015 -3.18055e-015 -5.34234e-015 6.21202e-016 -3.18055e-015 -2.25496e-015 -0.0160461 0.00299277 0.000858857 1.77664e-015 6.36111e-015 -9.74666e-015 6.21202e-016 -3.18055e-015 -2.25496e-015 -0.0125663 0.00312229 0.00282455 -2.63451e-006 -1.86395e-006 6.26344e-007 6.21202e-016 -3.18055e-015 -2.25496e-015 9.87711e-016 6.36111e-015 -5.13734e-015 -5.66536e-015 -3.18055e-015 1.01256e-015 2.93467 -1.54232 1.96679 -31.9616 28.736 -15.1877 6.73456 -54.5442 26.1649 1.3189 -2.34833 15.7309 -3.77691e-015 9.54166e-015 4.96962e-015 -7.65302e-006 -1.49699e-005 5.89962e-006 7.65302e-006 1.49699e-005 -5.89962e-006 -3.77691e-015 9.54166e-015 4.96962e-015 0.0129574 0.00231072 -8.768e-005 -1.72436e-006 6.40746e-006 4.78693e-006 -3.77691e-015 9.54166e-015 4.96962e-015 0.0163043 0.0030255 -0.000870543 9.93923e-016 -6.36111e-015 2.78299e-015 -3.77691e-015 9.54166e-015 4.96962e-015 0.0145996 0.0036767 -0.00326847 -8.45695e-006 -5.55504e-006 4.39861e-006 -3.77691e-015 9.54166e-015 4.96962e-015 -7.65302e-006 -1.49699e-005 5.89962e-006 7.65302e-006 1.49699e-005 -5.89962e-006 -124.577 -66.8725 -115.511 11.7029 82.3541 -13.7777 -21.0055 25.7424 28.3511 -1.66657e-006 2.44702e-007 -6.82077e-007 35.9669 -6.54746 -13.2344 -3.70342 -0.00285478 0.0154934 10.0672 6.07171 23.8904 1.80614e-006 1.71964e-006 2.16633e-006 
1.24748 1.09948 10.0086 6.02805e-008 -76.0169 6.45793e-008 -0.0568576 7.3588 -0.112233 -0.100297 14.7177 -0.219789 -0.100297 14.7178 -0.219789 -9.46875e-009 17.9984 3.77685e-008 1.4311e-007 8.99856 -8.77795e-008 -4.45692 -2.68157 -5.11414 8.00961 33.9772 23.2129 -25.8279 -71.6637 -52.9613 -2.68734 -2.54503 -21.7917 -1.12089e-005 1.33315e-005 3.14887e-006 -1.98785e-016 1.59028e-015 1.91827e-014 1.39149e-015 4.77083e-015 6.60959e-015 -1.12089e-005 1.33315e-005 3.14887e-006 -0.0127955 0.00232092 8.31042e-005 2.69589e-007 -7.61345e-007 5.95326e-006 -1.12089e-005 1.33315e-005 3.14887e-006 -0.0160635 0.00300388 0.000858245 -1.98785e-015 4.77083e-015 -1.83876e-015 -1.12089e-005 1.33315e-005 3.14887e-006 -0.0125897 0.00311104 0.00282305 -2.49324e-006 6.28525e-006 2.69792e-006 -1.12089e-005 1.33315e-005 3.14887e-006 -1.98785e-016 1.59028e-015 1.91827e-014 1.39149e-015 4.77083e-015 6.60959e-015 4.04598 -2.04611 0.155621 -11.7035 34.2229 -16.211 21.9966 -72.78 48.5959 1.8721 -3.1469 21.2605 1.98785e-015 1.59028e-015 -2.68359e-015 2.38542e-015 1.59028e-015 8.94531e-016 7.95139e-016 1.59028e-015 6.95746e-016 1.98785e-015 1.59028e-015 -2.68359e-015 0.0129451 0.00231543 -9.26653e-005 1.59028e-015 1.59028e-015 -8.44835e-015 1.98785e-015 1.59028e-015 -2.68359e-015 0.0163471 0.00304147 -0.00087664 -3.18055e-015 7.95139e-015 4.77083e-015 1.98785e-015 1.59028e-015 -2.68359e-015 0.0145725 0.00367524 -0.00326758 -7.95139e-016 -1.59028e-015 -3.77691e-015 1.98785e-015 1.59028e-015 -2.68359e-015 2.38542e-015 1.59028e-015 8.94531e-016 7.95139e-016 1.59028e-015 6.95746e-016 -164.147 -38.2963 -140.712 173.824 70.7989 -175.575 -35.4093 31.5616 42.2408 6.13622e-006 8.83326e-006 1.08019e-006 48.0628 -9.05738 -18.1289 -4.99964 0.0659557 0.0678821 11.0011 7.60017 32.5639 -5.63595e-006 1.28965e-005 -1.5934e-006 
1.45361 -3.57717 9.57686 3.80052e-008 -81.8694 3.23473e-008 -0.0585728 7.87086 -0.121886 -0.101513 15.7418 -0.238995 -0.101514 15.7419 -0.238995 1.22157e-007 19.0912 5.70327e-007 1.87929e-007 9.53557 -1.84105e-008 -4.39265 -2.6468 -4.48153 1.66756 35.0193 23.7567 -39.3466 -75.9674 -68.5521 -3.09279 -2.53989 -23.4884 1.65566e-006 2.30464e-006 -4.22329e-006 7.49783e-006 -8.62007e-006 3.8428e-006 3.97569e-016 0 -1.09829e-014 1.65566e-006 2.30464e-006 -4.22329e-006 -0.0128313 0.00231616 9.17832e-005 2.79817e-006 -1.49524e-006 5.48103e-006 1.65566e-006 2.30464e-006 -4.22329e-006 -0.0160283 0.00298152 0.000862944 -0 0 8.44835e-016 1.65566e-006 2.30464e-006 -4.22329e-006 -0.0125766 0.00312401 0.00283267 1.25751e-005 -1.64365e-005 2.00651e-006 1.65566e-006 2.30464e-006 -4.22329e-006 7.49783e-006 -8.62007e-006 3.8428e-006 3.97569e-016 0 -1.09829e-014 4.01218 -1.98308 -0.443319 -5.63814 35.8542 -16.5088 35.4703 -77.4097 64.0921 2.23564 -3.18652 22.932 -3.44836e-031 -1.59028e-015 -1.2424e-014 -1.59028e-015 -1.59028e-015 -1.25234e-014 -7.95139e-016 0 -5.76476e-015 -3.44836e-031 -1.59028e-015 -1.2424e-014 0.0129411 0.00231681 -8.82369e-005 3.39319e-031 2.38542e-015 -8.15017e-015 -3.44836e-031 -1.59028e-015 -1.2424e-014 0.0163291 0.00302511 -0.000874367 1.59028e-015 7.95139e-016 -1.05356e-014 -3.44836e-031 -1.59028e-015 -1.2424e-014 0.0145534 0.00367646 -0.00325855 -7.95139e-016 0 2.08724e-015 -3.44836e-031 -1.59028e-015 -1.2424e-014 -1.59028e-015 -1.59028e-015 -1.25234e-014 -7.95139e-016 0 -5.76476e-015 -170.635 -29.8652 -141.668 175.387 63.242 -176.905 -40.2443 32.1466 46.7304 -6.01107e-006 3.00103e-007 -1.02529e-006 51.354 -9.59412 -19.6996 -5.37156 -0.00197689 0.0246093 11.1948 7.7941 34.9779 3.18055e-015 -7.95139e-016 -1.59028e-015 
